<mxfile host="65bd71144e">
    <diagram id="O9zc1JAPMszDNkS3XDc8" name="Page-1">
        <mxGraphModel dx="1002" dy="659" grid="1" gridSize="10" guides="1" tooltips="1" connect="1" arrows="1" fold="1" page="1" pageScale="1" pageWidth="850" pageHeight="1100" math="0" shadow="0">
            <root>
                <mxCell id="0"/>
                <mxCell id="1" parent="0"/>
                <mxCell id="2" value="ESP32" style="rounded=1;whiteSpace=wrap;html=1;" parent="1" vertex="1">
                    <mxGeometry x="280" y="370" width="120" height="60" as="geometry"/>
                </mxCell>
                <mxCell id="3" value="&lt;div&gt;3G/4G WiFi Hotspot        |&lt;br/&gt;|       (WiFi Connection)&lt;/div&gt;" style="rounded=1;whiteSpace=wrap;html=1;" parent="1" vertex="1">
                    <mxGeometry x="270" y="250" width="120" height="60" as="geometry"/>
                </mxCell>
                <mxCell id="4" value="&lt;div&gt;RFID Module&lt;/div&gt;" style="rounded=1;whiteSpace=wrap;html=1;" parent="1" vertex="1">
                    <mxGeometry y="400" width="120" height="60" as="geometry"/>
                </mxCell>
                <mxCell id="5" value="&lt;div&gt;Blynk Cloud               |&lt;br/&gt;|   (Remote Control &amp;amp; Monitoring)&lt;/div&gt;" style="rounded=1;whiteSpace=wrap;html=1;" parent="1" vertex="1">
                    <mxGeometry x="270" y="100" width="120" height="60" as="geometry"/>
                </mxCell>
                <mxCell id="8" value="&lt;div&gt;SPI&amp;nbsp;&lt;/div&gt;" style="text;html=1;align=center;verticalAlign=middle;resizable=0;points=[];autosize=1;strokeColor=none;fillColor=none;" parent="1" vertex="1">
                    <mxGeometry x="160" y="385" width="50" height="30" as="geometry"/>
                </mxCell>
                <mxCell id="11" value="Wifi&amp;nbsp;" style="text;html=1;align=center;verticalAlign=middle;whiteSpace=wrap;rounded=0;" parent="1" vertex="1">
                    <mxGeometry x="320" y="190" width="60" height="30" as="geometry"/>
                </mxCell>
                <mxCell id="13" value="Wifi&amp;nbsp;" style="text;html=1;align=center;verticalAlign=middle;whiteSpace=wrap;rounded=0;" parent="1" vertex="1">
                    <mxGeometry x="330" y="325" width="60" height="30" as="geometry"/>
                </mxCell>
                <mxCell id="14" value="" style="endArrow=classic;startArrow=classic;html=1;entryX=0.5;entryY=1;entryDx=0;entryDy=0;exitX=0.5;exitY=0;exitDx=0;exitDy=0;" parent="1" edge="1">
                    <mxGeometry width="50" height="50" relative="1" as="geometry">
                        <mxPoint x="329" y="370" as="sourcePoint"/>
                        <mxPoint x="329" y="310" as="targetPoint"/>
                    </mxGeometry>
                </mxCell>
                <mxCell id="15" value="&lt;div&gt;Environment Sensing DTH22&lt;/div&gt;" style="rounded=1;whiteSpace=wrap;html=1;" parent="1" vertex="1">
                    <mxGeometry y="490" width="120" height="60" as="geometry"/>
                </mxCell>
                <mxCell id="16" value="" style="endArrow=classic;startArrow=classic;html=1;exitX=0.45;exitY=0;exitDx=0;exitDy=0;exitPerimeter=0;" parent="1" target="2" edge="1">
                    <mxGeometry width="50" height="50" relative="1" as="geometry">
                        <mxPoint x="120" y="510" as="sourcePoint"/>
                        <mxPoint x="346" y="450" as="targetPoint"/>
                    </mxGeometry>
                </mxCell>
                <mxCell id="17" value="&lt;span id=&quot;docs-internal-guid-bf08e1e7-7fff-56b9-9a18-f6ef462b0949&quot;&gt;&lt;span style=&quot;font-size: 11pt; font-family: Arial, sans-serif; color: rgb(0, 0, 0); background-color: transparent; font-variant-numeric: normal; font-variant-east-asian: normal; font-variant-alternates: normal; font-variant-position: normal; font-variant-emoji: normal; vertical-align: baseline; white-space-collapse: preserve;&quot;&gt;PIR&lt;/span&gt;&lt;/span&gt;" style="rounded=1;whiteSpace=wrap;html=1;" parent="1" vertex="1">
                    <mxGeometry y="580" width="120" height="60" as="geometry"/>
                </mxCell>
                <mxCell id="18" value="" style="endArrow=classic;startArrow=classic;html=1;exitX=1;exitY=0.25;exitDx=0;exitDy=0;entryX=0.346;entryY=1.025;entryDx=0;entryDy=0;entryPerimeter=0;" parent="1" source="17" target="2" edge="1">
                    <mxGeometry width="50" height="50" relative="1" as="geometry">
                        <mxPoint x="320" y="460" as="sourcePoint"/>
                        <mxPoint x="370" y="410" as="targetPoint"/>
                    </mxGeometry>
                </mxCell>
                <mxCell id="20" value="Relay 4 kênh" style="rounded=1;whiteSpace=wrap;html=1;" parent="1" vertex="1">
                    <mxGeometry x="550" y="325" width="120" height="60" as="geometry"/>
                </mxCell>
                <mxCell id="21" value="" style="endArrow=classic;startArrow=classic;html=1;exitX=1;exitY=0.25;exitDx=0;exitDy=0;entryX=0;entryY=0.5;entryDx=0;entryDy=0;" parent="1" source="2" target="20" edge="1">
                    <mxGeometry width="50" height="50" relative="1" as="geometry">
                        <mxPoint x="320" y="460" as="sourcePoint"/>
                        <mxPoint x="370" y="410" as="targetPoint"/>
                    </mxGeometry>
                </mxCell>
                <mxCell id="23" value="Servo" style="rounded=1;whiteSpace=wrap;html=1;" parent="1" vertex="1">
                    <mxGeometry x="560" y="430" width="120" height="60" as="geometry"/>
                </mxCell>
                <mxCell id="25" value="công tắc" style="rounded=1;whiteSpace=wrap;html=1;" parent="1" vertex="1">
                    <mxGeometry y="310" width="120" height="60" as="geometry"/>
                </mxCell>
                <mxCell id="27" value="" style="endArrow=classic;startArrow=classic;html=1;entryX=1;entryY=0.75;entryDx=0;entryDy=0;" parent="1" source="23" target="2" edge="1">
                    <mxGeometry width="50" height="50" relative="1" as="geometry">
                        <mxPoint x="680" y="443" as="sourcePoint"/>
                        <mxPoint x="370" y="410" as="targetPoint"/>
                    </mxGeometry>
                </mxCell>
                <mxCell id="28" value="&lt;div&gt;PWM&lt;/div&gt;" style="text;whiteSpace=wrap;html=1;" parent="1" vertex="1">
                    <mxGeometry x="460" y="430" width="60" height="40" as="geometry"/>
                </mxCell>
                <mxCell id="29" value="" style="endArrow=classic;startArrow=classic;html=1;exitX=1;exitY=0.5;exitDx=0;exitDy=0;entryX=0;entryY=0;entryDx=0;entryDy=0;" parent="1" source="25" target="2" edge="1">
                    <mxGeometry width="50" height="50" relative="1" as="geometry">
                        <mxPoint x="320" y="460" as="sourcePoint"/>
                        <mxPoint x="370" y="410" as="targetPoint"/>
                    </mxGeometry>
                </mxCell>
                <mxCell id="30" value="&lt;div&gt;GPIO (Digital Input)&lt;/div&gt;" style="text;whiteSpace=wrap;html=1;" parent="1" vertex="1">
                    <mxGeometry x="140" y="310" width="120" height="40" as="geometry"/>
                </mxCell>
                <mxCell id="35" value="&lt;div&gt;GPIO (Digital Output)&lt;/div&gt;" style="text;whiteSpace=wrap;html=1;rotation=0;" parent="1" vertex="1">
                    <mxGeometry x="410" y="335" width="150" height="40" as="geometry"/>
                </mxCell>
                <mxCell id="36" value="&lt;div&gt;GPIO (Digital Input)&lt;/div&gt;" style="text;whiteSpace=wrap;html=1;rotation=-30;" parent="1" vertex="1">
                    <mxGeometry x="120" y="510" width="140" height="40" as="geometry"/>
                </mxCell>
                <mxCell id="37" value="&lt;div&gt;Single-Wire (1-Wire Protocol)&lt;/div&gt;" style="text;whiteSpace=wrap;html=1;rotation=-20;" parent="1" vertex="1">
                    <mxGeometry x="115" y="430" width="140" height="40" as="geometry"/>
                </mxCell>
                <mxCell id="38" value="" style="endArrow=classic;startArrow=classic;html=1;exitX=1;exitY=0.5;exitDx=0;exitDy=0;entryX=0;entryY=0.5;entryDx=0;entryDy=0;" parent="1" source="4" target="2" edge="1">
                    <mxGeometry width="50" height="50" relative="1" as="geometry">
                        <mxPoint x="320" y="460" as="sourcePoint"/>
                        <mxPoint x="370" y="410" as="targetPoint"/>
                    </mxGeometry>
                </mxCell>
                <mxCell id="39" value="&lt;div&gt;LDR&lt;/div&gt;" style="rounded=1;whiteSpace=wrap;html=1;" parent="1" vertex="1">
                    <mxGeometry y="670" width="120" height="60" as="geometry"/>
                </mxCell>
                <mxCell id="40" value="" style="endArrow=classic;startArrow=classic;html=1;exitX=1;exitY=0;exitDx=0;exitDy=0;entryX=0.5;entryY=1;entryDx=0;entryDy=0;" parent="1" source="39" target="2" edge="1">
                    <mxGeometry width="50" height="50" relative="1" as="geometry">
                        <mxPoint x="320" y="460" as="sourcePoint"/>
                        <mxPoint x="370" y="410" as="targetPoint"/>
                    </mxGeometry>
                </mxCell>
                <mxCell id="42" value="&lt;div&gt;Analog&lt;/div&gt;" style="text;whiteSpace=wrap;html=1;rotation=-40;" parent="1" vertex="1">
                    <mxGeometry x="220" y="540" width="70" height="40" as="geometry"/>
                </mxCell>
                <mxCell id="43" value="" style="endArrow=classic;startArrow=classic;html=1;entryX=0.5;entryY=1;entryDx=0;entryDy=0;exitX=0.5;exitY=0;exitDx=0;exitDy=0;" parent="1" source="3" target="5" edge="1">
                    <mxGeometry width="50" height="50" relative="1" as="geometry">
                        <mxPoint x="400" y="360" as="sourcePoint"/>
                        <mxPoint x="450" y="310" as="targetPoint"/>
                    </mxGeometry>
                </mxCell>
            </root>
        </mxGraphModel>
    </diagram>
</mxfile>